<svg width="24" height="24" viewBox="0 0 24 24" fill="none" xmlns="http://www.w3.org/2000/svg">
<path fill-rule="evenodd" clip-rule="evenodd" d="M17.54 13C17.8024 13.0011 18.054 13.1053 18.2402 13.29L23.0498 18.0996C23.4375 18.4896 23.4375 19.1197 23.0498 19.5098L19.5098 23.0498C19.321 23.237 19.0656 23.3414 18.7998 23.3398C18.5342 23.3456 18.2786 23.2364 18.0996 23.04L13.29 18.2402C13.1053 18.054 13.0011 17.8024 13 17.54V14C13 13.4477 13.4477 13 14 13H17.54ZM14 17.54L18.7998 22.3398L22.3398 18.7998L17.54 14H14V17.54Z" fill="#1A1A19"/>
<path d="M20 1C20.5523 1 21 1.44772 21 2V13H20V2H4V20H13V21H4C3.44772 21 3 20.5523 3 20V2C3 1.44772 3.44772 1 4 1H20Z" fill="#1A1A19"/>
<path d="M18 10H6V9H18V10Z" fill="#1A1A19"/>
<path d="M18 6H6V5H18V6Z" fill="#1A1A19"/>
</svg>
