<svg width="24" height="24" viewBox="0 0 24 24" fill="none" xmlns="http://www.w3.org/2000/svg">
<path fill-rule="evenodd" clip-rule="evenodd" d="M6.46152 11.76C7.48977 11.7553 8.44967 11.2442 9.02768 10.3938C9.76251 11.1252 10.7602 11.5309 11.7969 11.52C12.9396 11.5203 14.0254 11.0213 14.7692 10.1538C15.3882 11.3261 16.6821 11.9774 17.9924 11.7761C19.3028 11.5748 20.3415 10.5652 20.5801 9.26115C20.8186 7.95709 20.2045 6.64513 19.0503 5.99301C17.8961 5.34089 16.4554 5.4919 15.4615 6.36919C14.9403 4.84495 13.5327 3.80031 11.9228 3.74296C10.3129 3.68561 8.83452 4.62744 8.20614 6.11073C7.10666 5.34746 5.64158 5.37559 4.57221 6.18051C3.50285 6.98543 3.07046 8.38554 3.49974 9.65327C3.92902 10.921 5.12312 11.7704 6.46152 11.76ZM17.4646 6.4615C18.5975 6.45924 19.5446 7.32218 19.6476 8.45035C19.7506 9.57851 18.9753 10.5987 17.8607 10.8015C16.7462 11.0044 15.6611 10.3228 15.36 9.23073V9.13842C15.5745 8.65578 15.6876 8.13425 15.6923 7.60612V7.46765C16.0824 6.86197 16.7446 6.48601 17.4646 6.4615ZM14.7692 7.38458C14.6435 5.81346 13.3269 4.60549 11.7508 4.61535C10.1151 4.6358 8.80136 5.97028 8.80651 7.60605C8.81167 9.24181 10.1338 10.568 11.7695 10.5781C13.4053 10.5883 14.7438 9.27862 14.7692 7.64304C14.774 7.55695 14.774 7.47067 14.7692 7.38458ZM6.46152 6.4615C6.9966 6.46878 7.51112 6.66869 7.91075 7.02458C7.87557 7.21356 7.85398 7.40482 7.84614 7.59689C7.85152 8.30415 8.04936 8.99661 8.41845 9.59996C7.9445 10.5654 6.83694 11.0405 5.81077 10.7185C4.7846 10.3966 4.14695 9.37391 4.30947 8.31077C4.47199 7.24764 5.38603 6.46219 6.46152 6.4615Z" fill="#1A1A19"/>
<path fill-rule="evenodd" clip-rule="evenodd" d="M23.0769 15.6184C23.0757 15.4329 23.0602 15.2477 23.0308 15.0646C22.9125 14.3714 22.5912 13.7289 22.1077 13.2184C21.8781 12.9607 21.6104 12.7397 21.3138 12.563C21.0279 12.3784 20.7171 12.2354 20.3908 12.1384C20.0183 12.0352 19.6325 11.9885 19.2461 12H4.67075C3.95087 11.9981 3.24462 12.1962 2.63075 12.5723C2.33421 12.7489 2.06649 12.9699 1.83691 13.2277C1.60598 13.4801 1.41036 13.7627 1.25537 14.0677C1.09478 14.3812 0.982729 14.7174 0.92306 15.0646C0.89093 15.2476 0.872417 15.4327 0.867676 15.6184V17.6584C0.867619 17.8747 0.954758 18.0818 1.10938 18.2329C1.264 18.3841 1.47304 18.4665 1.68921 18.4615H5.03998V19.5323C5.03995 19.9467 5.37325 20.2841 5.78768 20.2892H17.9631C18.4729 20.2892 18.8861 19.8759 18.8861 19.3661V18.4615H22.2277C22.4423 18.464 22.6489 18.3804 22.8015 18.2296C22.9541 18.0787 23.04 17.873 23.04 17.6584C23.0769 17.04 23.0769 15.8123 23.0769 15.6184ZM5.27998 15.323C5.10718 15.8848 5.02613 16.4708 5.03998 17.0584V17.5384H4.11691V16.1538H3.19383V17.5384H1.84614V15.2584C1.88966 15.0048 1.97054 14.7591 2.08614 14.5292C2.19543 14.2809 2.3417 14.0506 2.51998 13.8461C2.6987 13.6585 2.90028 13.4942 3.11998 13.3569C3.3469 13.2159 3.59233 13.1072 3.84921 13.0338C4.11685 12.9602 4.39318 12.9229 4.67075 12.923H7.07075C7.03169 12.9515 6.99126 12.9785 6.95051 13.0057C6.88535 13.0493 6.81937 13.0935 6.75691 13.1446C6.40649 13.4276 6.09599 13.7567 5.83383 14.123C5.59487 14.4956 5.40849 14.8995 5.27998 15.323ZM16.1169 17.5384V19.3846L17.9446 19.3661V16.6892C17.943 16.4914 17.9276 16.294 17.8984 16.0984C17.7769 15.3927 17.4567 14.7363 16.9754 14.2061C16.7251 13.9441 16.4429 13.7146 16.1354 13.523C15.8216 13.3305 15.4831 13.1815 15.1292 13.08C14.7564 12.9769 14.3714 12.9241 13.9846 12.923H9.95998C9.77157 12.9189 9.58316 12.9312 9.39691 12.96C9.02118 13.0091 8.65439 13.1117 8.30768 13.2646C7.97669 13.4187 7.66654 13.6141 7.3846 13.8461C7.09237 14.0909 6.83738 14.377 6.62768 14.6953C6.42881 14.9784 6.27325 15.2895 6.16614 15.6184C6.01672 16.0928 5.94807 16.589 5.96306 17.0861V19.3846H7.80921V17.5384H8.73229V19.3846H15.1938V17.5384H16.1169ZM22.1538 17.5384H20.7692V16.1538H19.8461V17.5384H18.9231V16.6615C18.9146 15.9693 18.7506 15.2879 18.4431 14.6677C18.2456 14.2716 17.994 13.905 17.6954 13.5784C17.463 13.3309 17.2028 13.1109 16.92 12.923H19.2923C19.5729 12.9223 19.8524 12.9596 20.1231 13.0338C20.3787 13.1106 20.6237 13.2191 20.8523 13.3569C21.072 13.4942 21.2736 13.6585 21.4523 13.8461C21.6238 14.0388 21.7696 14.2529 21.8861 14.483C21.9988 14.7133 22.0766 14.9591 22.1169 15.2123C22.146 15.3705 22.1584 15.5314 22.1538 15.6923V17.5384Z" fill="#1A1A19"/>
</svg>
